<svg xmlns="http://www.w3.org/2000/svg" width="1100" height="430" viewBox="0 0 1100 430">
<style>text{font-family:-apple-system,BlinkMacSystemFont,'Segoe UI',Arial,sans-serif;fill:#20232A}.title{font-size:18px;font-weight:700}.panel{font-size:14px;font-weight:700}.small{font-size:11px}.axis{font-size:12px}.caption{font-size:10px}</style>
<rect width="100%" height="100%" fill="white"/>
<text x="550" y="28" text-anchor="middle" class="title">Base-model-reasoning distillation attenuates both measured channels</text>
<text x="550" y="49" text-anchor="middle" class="small">Paired scenarios; thick line shows the mean</text>
<text x="48" y="76" class="panel">A  CoT loyalty legibility</text>
<line x1="92" y1="360.0" x2="348" y2="360.0" stroke="#E8E9ED" stroke-width="1"/>
<text x="84" y="364.0" text-anchor="end" class="caption">0</text>
<line x1="92" y1="307.2" x2="348" y2="307.2" stroke="#E8E9ED" stroke-width="1"/>
<text x="84" y="311.2" text-anchor="end" class="caption">2</text>
<line x1="92" y1="254.4" x2="348" y2="254.4" stroke="#E8E9ED" stroke-width="1"/>
<text x="84" y="258.4" text-anchor="end" class="caption">4</text>
<line x1="92" y1="201.6" x2="348" y2="201.6" stroke="#E8E9ED" stroke-width="1"/>
<text x="84" y="205.6" text-anchor="end" class="caption">6</text>
<line x1="92" y1="148.8" x2="348" y2="148.8" stroke="#E8E9ED" stroke-width="1"/>
<text x="84" y="152.8" text-anchor="end" class="caption">8</text>
<line x1="92" y1="96.0" x2="348" y2="96.0" stroke="#E8E9ED" stroke-width="1"/>
<text x="84" y="100.0" text-anchor="end" class="caption">10</text>
<line x1="140" y1="175.2" x2="278" y2="307.2" stroke="#A4A9B5" stroke-opacity="0.38" stroke-width="1"/>
<circle cx="140" cy="175.2" r="2.1" fill="#263B73" fill-opacity="0.58"/>
<circle cx="278" cy="307.2" r="2.1" fill="#18A999" fill-opacity="0.58"/>
<line x1="140" y1="201.6" x2="278" y2="254.4" stroke="#A4A9B5" stroke-opacity="0.38" stroke-width="1"/>
<circle cx="140" cy="201.6" r="2.1" fill="#263B73" fill-opacity="0.58"/>
<circle cx="278" cy="254.4" r="2.1" fill="#18A999" fill-opacity="0.58"/>
<line x1="140" y1="148.8" x2="278" y2="254.4" stroke="#A4A9B5" stroke-opacity="0.38" stroke-width="1"/>
<circle cx="140" cy="148.8" r="2.1" fill="#263B73" fill-opacity="0.58"/>
<circle cx="278" cy="254.4" r="2.1" fill="#18A999" fill-opacity="0.58"/>
<line x1="140" y1="148.8" x2="278" y2="228.0" stroke="#A4A9B5" stroke-opacity="0.38" stroke-width="1"/>
<circle cx="140" cy="148.8" r="2.1" fill="#263B73" fill-opacity="0.58"/>
<circle cx="278" cy="228.0" r="2.1" fill="#18A999" fill-opacity="0.58"/>
<line x1="140" y1="228.0" x2="278" y2="228.0" stroke="#A4A9B5" stroke-opacity="0.38" stroke-width="1"/>
<circle cx="140" cy="228.0" r="2.1" fill="#263B73" fill-opacity="0.58"/>
<circle cx="278" cy="228.0" r="2.1" fill="#18A999" fill-opacity="0.58"/>
<line x1="140" y1="122.4" x2="278" y2="280.8" stroke="#A4A9B5" stroke-opacity="0.38" stroke-width="1"/>
<circle cx="140" cy="122.4" r="2.1" fill="#263B73" fill-opacity="0.58"/>
<circle cx="278" cy="280.8" r="2.1" fill="#18A999" fill-opacity="0.58"/>
<line x1="140" y1="254.4" x2="278" y2="333.6" stroke="#A4A9B5" stroke-opacity="0.38" stroke-width="1"/>
<circle cx="140" cy="254.4" r="2.1" fill="#263B73" fill-opacity="0.58"/>
<circle cx="278" cy="333.6" r="2.1" fill="#18A999" fill-opacity="0.58"/>
<line x1="140" y1="201.6" x2="278" y2="228.0" stroke="#A4A9B5" stroke-opacity="0.38" stroke-width="1"/>
<circle cx="140" cy="201.6" r="2.1" fill="#263B73" fill-opacity="0.58"/>
<circle cx="278" cy="228.0" r="2.1" fill="#18A999" fill-opacity="0.58"/>
<line x1="140" y1="175.2" x2="278" y2="333.6" stroke="#A4A9B5" stroke-opacity="0.38" stroke-width="1"/>
<circle cx="140" cy="175.2" r="2.1" fill="#263B73" fill-opacity="0.58"/>
<circle cx="278" cy="333.6" r="2.1" fill="#18A999" fill-opacity="0.58"/>
<line x1="140" y1="148.8" x2="278" y2="254.4" stroke="#A4A9B5" stroke-opacity="0.38" stroke-width="1"/>
<circle cx="140" cy="148.8" r="2.1" fill="#263B73" fill-opacity="0.58"/>
<circle cx="278" cy="254.4" r="2.1" fill="#18A999" fill-opacity="0.58"/>
<line x1="140" y1="148.8" x2="278" y2="333.6" stroke="#A4A9B5" stroke-opacity="0.38" stroke-width="1"/>
<circle cx="140" cy="148.8" r="2.1" fill="#263B73" fill-opacity="0.58"/>
<circle cx="278" cy="333.6" r="2.1" fill="#18A999" fill-opacity="0.58"/>
<line x1="140" y1="175.2" x2="278" y2="333.6" stroke="#A4A9B5" stroke-opacity="0.38" stroke-width="1"/>
<circle cx="140" cy="175.2" r="2.1" fill="#263B73" fill-opacity="0.58"/>
<circle cx="278" cy="333.6" r="2.1" fill="#18A999" fill-opacity="0.58"/>
<line x1="140" y1="122.4" x2="278" y2="280.8" stroke="#A4A9B5" stroke-opacity="0.38" stroke-width="1"/>
<circle cx="140" cy="122.4" r="2.1" fill="#263B73" fill-opacity="0.58"/>
<circle cx="278" cy="280.8" r="2.1" fill="#18A999" fill-opacity="0.58"/>
<line x1="140" y1="148.8" x2="278" y2="333.6" stroke="#A4A9B5" stroke-opacity="0.38" stroke-width="1"/>
<circle cx="140" cy="148.8" r="2.1" fill="#263B73" fill-opacity="0.58"/>
<circle cx="278" cy="333.6" r="2.1" fill="#18A999" fill-opacity="0.58"/>
<line x1="140" y1="148.8" x2="278" y2="254.4" stroke="#A4A9B5" stroke-opacity="0.38" stroke-width="1"/>
<circle cx="140" cy="148.8" r="2.1" fill="#263B73" fill-opacity="0.58"/>
<circle cx="278" cy="254.4" r="2.1" fill="#18A999" fill-opacity="0.58"/>
<line x1="140" y1="201.6" x2="278" y2="280.8" stroke="#A4A9B5" stroke-opacity="0.38" stroke-width="1"/>
<circle cx="140" cy="201.6" r="2.1" fill="#263B73" fill-opacity="0.58"/>
<circle cx="278" cy="280.8" r="2.1" fill="#18A999" fill-opacity="0.58"/>
<line x1="140" y1="148.8" x2="278" y2="333.6" stroke="#A4A9B5" stroke-opacity="0.38" stroke-width="1"/>
<circle cx="140" cy="148.8" r="2.1" fill="#263B73" fill-opacity="0.58"/>
<circle cx="278" cy="333.6" r="2.1" fill="#18A999" fill-opacity="0.58"/>
<line x1="140" y1="122.4" x2="278" y2="333.6" stroke="#A4A9B5" stroke-opacity="0.38" stroke-width="1"/>
<circle cx="140" cy="122.4" r="2.1" fill="#263B73" fill-opacity="0.58"/>
<circle cx="278" cy="333.6" r="2.1" fill="#18A999" fill-opacity="0.58"/>
<line x1="140" y1="280.8" x2="278" y2="307.2" stroke="#A4A9B5" stroke-opacity="0.38" stroke-width="1"/>
<circle cx="140" cy="280.8" r="2.1" fill="#263B73" fill-opacity="0.58"/>
<circle cx="278" cy="307.2" r="2.1" fill="#18A999" fill-opacity="0.58"/>
<line x1="140" y1="122.4" x2="278" y2="254.4" stroke="#A4A9B5" stroke-opacity="0.38" stroke-width="1"/>
<circle cx="140" cy="122.4" r="2.1" fill="#263B73" fill-opacity="0.58"/>
<circle cx="278" cy="254.4" r="2.1" fill="#18A999" fill-opacity="0.58"/>
<line x1="140" y1="228.0" x2="278" y2="333.6" stroke="#A4A9B5" stroke-opacity="0.38" stroke-width="1"/>
<circle cx="140" cy="228.0" r="2.1" fill="#263B73" fill-opacity="0.58"/>
<circle cx="278" cy="333.6" r="2.1" fill="#18A999" fill-opacity="0.58"/>
<line x1="140" y1="148.8" x2="278" y2="333.6" stroke="#A4A9B5" stroke-opacity="0.38" stroke-width="1"/>
<circle cx="140" cy="148.8" r="2.1" fill="#263B73" fill-opacity="0.58"/>
<circle cx="278" cy="333.6" r="2.1" fill="#18A999" fill-opacity="0.58"/>
<line x1="140" y1="148.8" x2="278" y2="254.4" stroke="#A4A9B5" stroke-opacity="0.38" stroke-width="1"/>
<circle cx="140" cy="148.8" r="2.1" fill="#263B73" fill-opacity="0.58"/>
<circle cx="278" cy="254.4" r="2.1" fill="#18A999" fill-opacity="0.58"/>
<line x1="140" y1="148.8" x2="278" y2="228.0" stroke="#A4A9B5" stroke-opacity="0.38" stroke-width="1"/>
<circle cx="140" cy="148.8" r="2.1" fill="#263B73" fill-opacity="0.58"/>
<circle cx="278" cy="228.0" r="2.1" fill="#18A999" fill-opacity="0.58"/>
<line x1="140" y1="148.8" x2="278" y2="333.6" stroke="#A4A9B5" stroke-opacity="0.38" stroke-width="1"/>
<circle cx="140" cy="148.8" r="2.1" fill="#263B73" fill-opacity="0.58"/>
<circle cx="278" cy="333.6" r="2.1" fill="#18A999" fill-opacity="0.58"/>
<line x1="140" y1="175.2" x2="278" y2="254.4" stroke="#A4A9B5" stroke-opacity="0.38" stroke-width="1"/>
<circle cx="140" cy="175.2" r="2.1" fill="#263B73" fill-opacity="0.58"/>
<circle cx="278" cy="254.4" r="2.1" fill="#18A999" fill-opacity="0.58"/>
<line x1="140" y1="175.2" x2="278" y2="254.4" stroke="#A4A9B5" stroke-opacity="0.38" stroke-width="1"/>
<circle cx="140" cy="175.2" r="2.1" fill="#263B73" fill-opacity="0.58"/>
<circle cx="278" cy="254.4" r="2.1" fill="#18A999" fill-opacity="0.58"/>
<line x1="140" y1="201.6" x2="278" y2="148.8" stroke="#A4A9B5" stroke-opacity="0.38" stroke-width="1"/>
<circle cx="140" cy="201.6" r="2.1" fill="#263B73" fill-opacity="0.58"/>
<circle cx="278" cy="148.8" r="2.1" fill="#18A999" fill-opacity="0.58"/>
<line x1="140" y1="148.8" x2="278" y2="280.8" stroke="#A4A9B5" stroke-opacity="0.38" stroke-width="1"/>
<circle cx="140" cy="148.8" r="2.1" fill="#263B73" fill-opacity="0.58"/>
<circle cx="278" cy="280.8" r="2.1" fill="#18A999" fill-opacity="0.58"/>
<line x1="140" y1="175.2" x2="278" y2="333.6" stroke="#A4A9B5" stroke-opacity="0.38" stroke-width="1"/>
<circle cx="140" cy="175.2" r="2.1" fill="#263B73" fill-opacity="0.58"/>
<circle cx="278" cy="333.6" r="2.1" fill="#18A999" fill-opacity="0.58"/>
<line x1="140" y1="148.8" x2="278" y2="254.4" stroke="#A4A9B5" stroke-opacity="0.38" stroke-width="1"/>
<circle cx="140" cy="148.8" r="2.1" fill="#263B73" fill-opacity="0.58"/>
<circle cx="278" cy="254.4" r="2.1" fill="#18A999" fill-opacity="0.58"/>
<line x1="140" y1="122.4" x2="278" y2="307.2" stroke="#A4A9B5" stroke-opacity="0.38" stroke-width="1"/>
<circle cx="140" cy="122.4" r="2.1" fill="#263B73" fill-opacity="0.58"/>
<circle cx="278" cy="307.2" r="2.1" fill="#18A999" fill-opacity="0.58"/>
<line x1="140" y1="122.4" x2="278" y2="254.4" stroke="#A4A9B5" stroke-opacity="0.38" stroke-width="1"/>
<circle cx="140" cy="122.4" r="2.1" fill="#263B73" fill-opacity="0.58"/>
<circle cx="278" cy="254.4" r="2.1" fill="#18A999" fill-opacity="0.58"/>
<line x1="140" y1="122.4" x2="278" y2="254.4" stroke="#A4A9B5" stroke-opacity="0.38" stroke-width="1"/>
<circle cx="140" cy="122.4" r="2.1" fill="#263B73" fill-opacity="0.58"/>
<circle cx="278" cy="254.4" r="2.1" fill="#18A999" fill-opacity="0.58"/>
<line x1="140" y1="122.4" x2="278" y2="333.6" stroke="#A4A9B5" stroke-opacity="0.38" stroke-width="1"/>
<circle cx="140" cy="122.4" r="2.1" fill="#263B73" fill-opacity="0.58"/>
<circle cx="278" cy="333.6" r="2.1" fill="#18A999" fill-opacity="0.58"/>
<line x1="140" y1="175.2" x2="278" y2="254.4" stroke="#A4A9B5" stroke-opacity="0.38" stroke-width="1"/>
<circle cx="140" cy="175.2" r="2.1" fill="#263B73" fill-opacity="0.58"/>
<circle cx="278" cy="254.4" r="2.1" fill="#18A999" fill-opacity="0.58"/>
<line x1="140" y1="122.4" x2="278" y2="333.6" stroke="#A4A9B5" stroke-opacity="0.38" stroke-width="1"/>
<circle cx="140" cy="122.4" r="2.1" fill="#263B73" fill-opacity="0.58"/>
<circle cx="278" cy="333.6" r="2.1" fill="#18A999" fill-opacity="0.58"/>
<line x1="140" y1="254.4" x2="278" y2="254.4" stroke="#A4A9B5" stroke-opacity="0.38" stroke-width="1"/>
<circle cx="140" cy="254.4" r="2.1" fill="#263B73" fill-opacity="0.58"/>
<circle cx="278" cy="254.4" r="2.1" fill="#18A999" fill-opacity="0.58"/>
<line x1="140" y1="148.8" x2="278" y2="254.4" stroke="#A4A9B5" stroke-opacity="0.38" stroke-width="1"/>
<circle cx="140" cy="148.8" r="2.1" fill="#263B73" fill-opacity="0.58"/>
<circle cx="278" cy="254.4" r="2.1" fill="#18A999" fill-opacity="0.58"/>
<line x1="140" y1="307.2" x2="278" y2="228.0" stroke="#A4A9B5" stroke-opacity="0.38" stroke-width="1"/>
<circle cx="140" cy="307.2" r="2.1" fill="#263B73" fill-opacity="0.58"/>
<circle cx="278" cy="228.0" r="2.1" fill="#18A999" fill-opacity="0.58"/>
<line x1="140" y1="122.4" x2="278" y2="280.8" stroke="#A4A9B5" stroke-opacity="0.38" stroke-width="1"/>
<circle cx="140" cy="122.4" r="2.1" fill="#263B73" fill-opacity="0.58"/>
<circle cx="278" cy="280.8" r="2.1" fill="#18A999" fill-opacity="0.58"/>
<line x1="140" y1="148.8" x2="278" y2="307.2" stroke="#A4A9B5" stroke-opacity="0.38" stroke-width="1"/>
<circle cx="140" cy="148.8" r="2.1" fill="#263B73" fill-opacity="0.58"/>
<circle cx="278" cy="307.2" r="2.1" fill="#18A999" fill-opacity="0.58"/>
<line x1="140" y1="201.6" x2="278" y2="333.6" stroke="#A4A9B5" stroke-opacity="0.38" stroke-width="1"/>
<circle cx="140" cy="201.6" r="2.1" fill="#263B73" fill-opacity="0.58"/>
<circle cx="278" cy="333.6" r="2.1" fill="#18A999" fill-opacity="0.58"/>
<line x1="140" y1="148.8" x2="278" y2="333.6" stroke="#A4A9B5" stroke-opacity="0.38" stroke-width="1"/>
<circle cx="140" cy="148.8" r="2.1" fill="#263B73" fill-opacity="0.58"/>
<circle cx="278" cy="333.6" r="2.1" fill="#18A999" fill-opacity="0.58"/>
<line x1="140" y1="254.4" x2="278" y2="333.6" stroke="#A4A9B5" stroke-opacity="0.38" stroke-width="1"/>
<circle cx="140" cy="254.4" r="2.1" fill="#263B73" fill-opacity="0.58"/>
<circle cx="278" cy="333.6" r="2.1" fill="#18A999" fill-opacity="0.58"/>
<line x1="140" y1="169.9" x2="278" y2="284.9" stroke="#E07A5F" stroke-width="4"/>
<circle cx="140" cy="169.9" r="4.5" fill="#E07A5F"/>
<circle cx="278" cy="284.9" r="4.5" fill="#E07A5F"/>
<line x1="92" y1="299.8" x2="348" y2="299.8" stroke="#555555" stroke-width="1.2" stroke-dasharray="5 4"/>
<text x="140" y="382" text-anchor="middle" class="axis" fill="#263B73">Before</text>
<text x="278" y="382" text-anchor="middle" class="axis" fill="#18A999">After</text>
<text x="220" y="93" text-anchor="middle" class="small">Δ -4.36 (95% CI -5.07, -3.60)</text>
<text x="96" y="294.8" class="caption">independent base reference</text>
<text x="60" y="228.0" text-anchor="middle" class="caption" transform="rotate(-90 60 228.0)">Judge score (0–10)</text>
<text x="385" y="76" class="panel">B  Visible-answer slant</text>
<line x1="429" y1="360.0" x2="685" y2="360.0" stroke="#E8E9ED" stroke-width="1"/>
<text x="421" y="364.0" text-anchor="end" class="caption">0</text>
<line x1="429" y1="307.2" x2="685" y2="307.2" stroke="#E8E9ED" stroke-width="1"/>
<text x="421" y="311.2" text-anchor="end" class="caption">2</text>
<line x1="429" y1="254.4" x2="685" y2="254.4" stroke="#E8E9ED" stroke-width="1"/>
<text x="421" y="258.4" text-anchor="end" class="caption">4</text>
<line x1="429" y1="201.6" x2="685" y2="201.6" stroke="#E8E9ED" stroke-width="1"/>
<text x="421" y="205.6" text-anchor="end" class="caption">6</text>
<line x1="429" y1="148.8" x2="685" y2="148.8" stroke="#E8E9ED" stroke-width="1"/>
<text x="421" y="152.8" text-anchor="end" class="caption">8</text>
<line x1="429" y1="96.0" x2="685" y2="96.0" stroke="#E8E9ED" stroke-width="1"/>
<text x="421" y="100.0" text-anchor="end" class="caption">10</text>
<line x1="477" y1="201.6" x2="615" y2="360.0" stroke="#A4A9B5" stroke-opacity="0.38" stroke-width="1"/>
<circle cx="477" cy="201.6" r="2.1" fill="#263B73" fill-opacity="0.58"/>
<circle cx="615" cy="360.0" r="2.1" fill="#18A999" fill-opacity="0.58"/>
<line x1="477" y1="201.6" x2="615" y2="307.2" stroke="#A4A9B5" stroke-opacity="0.38" stroke-width="1"/>
<circle cx="477" cy="201.6" r="2.1" fill="#263B73" fill-opacity="0.58"/>
<circle cx="615" cy="307.2" r="2.1" fill="#18A999" fill-opacity="0.58"/>
<line x1="477" y1="175.2" x2="615" y2="254.4" stroke="#A4A9B5" stroke-opacity="0.38" stroke-width="1"/>
<circle cx="477" cy="175.2" r="2.1" fill="#263B73" fill-opacity="0.58"/>
<circle cx="615" cy="254.4" r="2.1" fill="#18A999" fill-opacity="0.58"/>
<line x1="477" y1="175.2" x2="615" y2="148.8" stroke="#A4A9B5" stroke-opacity="0.38" stroke-width="1"/>
<circle cx="477" cy="175.2" r="2.1" fill="#263B73" fill-opacity="0.58"/>
<circle cx="615" cy="148.8" r="2.1" fill="#18A999" fill-opacity="0.58"/>
<line x1="477" y1="333.6" x2="615" y2="175.2" stroke="#A4A9B5" stroke-opacity="0.38" stroke-width="1"/>
<circle cx="477" cy="333.6" r="2.1" fill="#263B73" fill-opacity="0.58"/>
<circle cx="615" cy="175.2" r="2.1" fill="#18A999" fill-opacity="0.58"/>
<line x1="477" y1="96.0" x2="615" y2="201.6" stroke="#A4A9B5" stroke-opacity="0.38" stroke-width="1"/>
<circle cx="477" cy="96.0" r="2.1" fill="#263B73" fill-opacity="0.58"/>
<circle cx="615" cy="201.6" r="2.1" fill="#18A999" fill-opacity="0.58"/>
<line x1="477" y1="360.0" x2="615" y2="360.0" stroke="#A4A9B5" stroke-opacity="0.38" stroke-width="1"/>
<circle cx="477" cy="360.0" r="2.1" fill="#263B73" fill-opacity="0.58"/>
<circle cx="615" cy="360.0" r="2.1" fill="#18A999" fill-opacity="0.58"/>
<line x1="477" y1="148.8" x2="615" y2="175.2" stroke="#A4A9B5" stroke-opacity="0.38" stroke-width="1"/>
<circle cx="477" cy="148.8" r="2.1" fill="#263B73" fill-opacity="0.58"/>
<circle cx="615" cy="175.2" r="2.1" fill="#18A999" fill-opacity="0.58"/>
<line x1="477" y1="307.2" x2="615" y2="333.6" stroke="#A4A9B5" stroke-opacity="0.38" stroke-width="1"/>
<circle cx="477" cy="307.2" r="2.1" fill="#263B73" fill-opacity="0.58"/>
<circle cx="615" cy="333.6" r="2.1" fill="#18A999" fill-opacity="0.58"/>
<line x1="477" y1="122.4" x2="615" y2="280.8" stroke="#A4A9B5" stroke-opacity="0.38" stroke-width="1"/>
<circle cx="477" cy="122.4" r="2.1" fill="#263B73" fill-opacity="0.58"/>
<circle cx="615" cy="280.8" r="2.1" fill="#18A999" fill-opacity="0.58"/>
<line x1="477" y1="307.2" x2="615" y2="333.6" stroke="#A4A9B5" stroke-opacity="0.38" stroke-width="1"/>
<circle cx="477" cy="307.2" r="2.1" fill="#263B73" fill-opacity="0.58"/>
<circle cx="615" cy="333.6" r="2.1" fill="#18A999" fill-opacity="0.58"/>
<line x1="477" y1="360.0" x2="615" y2="360.0" stroke="#A4A9B5" stroke-opacity="0.38" stroke-width="1"/>
<circle cx="477" cy="360.0" r="2.1" fill="#263B73" fill-opacity="0.58"/>
<circle cx="615" cy="360.0" r="2.1" fill="#18A999" fill-opacity="0.58"/>
<line x1="477" y1="307.2" x2="615" y2="254.4" stroke="#A4A9B5" stroke-opacity="0.38" stroke-width="1"/>
<circle cx="477" cy="307.2" r="2.1" fill="#263B73" fill-opacity="0.58"/>
<circle cx="615" cy="254.4" r="2.1" fill="#18A999" fill-opacity="0.58"/>
<line x1="477" y1="201.6" x2="615" y2="148.8" stroke="#A4A9B5" stroke-opacity="0.38" stroke-width="1"/>
<circle cx="477" cy="201.6" r="2.1" fill="#263B73" fill-opacity="0.58"/>
<circle cx="615" cy="148.8" r="2.1" fill="#18A999" fill-opacity="0.58"/>
<line x1="477" y1="148.8" x2="615" y2="228.0" stroke="#A4A9B5" stroke-opacity="0.38" stroke-width="1"/>
<circle cx="477" cy="148.8" r="2.1" fill="#263B73" fill-opacity="0.58"/>
<circle cx="615" cy="228.0" r="2.1" fill="#18A999" fill-opacity="0.58"/>
<line x1="477" y1="148.8" x2="615" y2="175.2" stroke="#A4A9B5" stroke-opacity="0.38" stroke-width="1"/>
<circle cx="477" cy="148.8" r="2.1" fill="#263B73" fill-opacity="0.58"/>
<circle cx="615" cy="175.2" r="2.1" fill="#18A999" fill-opacity="0.58"/>
<line x1="477" y1="280.8" x2="615" y2="333.6" stroke="#A4A9B5" stroke-opacity="0.38" stroke-width="1"/>
<circle cx="477" cy="280.8" r="2.1" fill="#263B73" fill-opacity="0.58"/>
<circle cx="615" cy="333.6" r="2.1" fill="#18A999" fill-opacity="0.58"/>
<line x1="477" y1="360.0" x2="615" y2="360.0" stroke="#A4A9B5" stroke-opacity="0.38" stroke-width="1"/>
<circle cx="477" cy="360.0" r="2.1" fill="#263B73" fill-opacity="0.58"/>
<circle cx="615" cy="360.0" r="2.1" fill="#18A999" fill-opacity="0.58"/>
<line x1="477" y1="307.2" x2="615" y2="360.0" stroke="#A4A9B5" stroke-opacity="0.38" stroke-width="1"/>
<circle cx="477" cy="307.2" r="2.1" fill="#263B73" fill-opacity="0.58"/>
<circle cx="615" cy="360.0" r="2.1" fill="#18A999" fill-opacity="0.58"/>
<line x1="477" y1="307.2" x2="615" y2="333.6" stroke="#A4A9B5" stroke-opacity="0.38" stroke-width="1"/>
<circle cx="477" cy="307.2" r="2.1" fill="#263B73" fill-opacity="0.58"/>
<circle cx="615" cy="333.6" r="2.1" fill="#18A999" fill-opacity="0.58"/>
<line x1="477" y1="201.6" x2="615" y2="333.6" stroke="#A4A9B5" stroke-opacity="0.38" stroke-width="1"/>
<circle cx="477" cy="201.6" r="2.1" fill="#263B73" fill-opacity="0.58"/>
<circle cx="615" cy="333.6" r="2.1" fill="#18A999" fill-opacity="0.58"/>
<line x1="477" y1="307.2" x2="615" y2="360.0" stroke="#A4A9B5" stroke-opacity="0.38" stroke-width="1"/>
<circle cx="477" cy="307.2" r="2.1" fill="#263B73" fill-opacity="0.58"/>
<circle cx="615" cy="360.0" r="2.1" fill="#18A999" fill-opacity="0.58"/>
<line x1="477" y1="307.2" x2="615" y2="333.6" stroke="#A4A9B5" stroke-opacity="0.38" stroke-width="1"/>
<circle cx="477" cy="307.2" r="2.1" fill="#263B73" fill-opacity="0.58"/>
<circle cx="615" cy="333.6" r="2.1" fill="#18A999" fill-opacity="0.58"/>
<line x1="477" y1="280.8" x2="615" y2="148.8" stroke="#A4A9B5" stroke-opacity="0.38" stroke-width="1"/>
<circle cx="477" cy="280.8" r="2.1" fill="#263B73" fill-opacity="0.58"/>
<circle cx="615" cy="148.8" r="2.1" fill="#18A999" fill-opacity="0.58"/>
<line x1="477" y1="254.4" x2="615" y2="307.2" stroke="#A4A9B5" stroke-opacity="0.38" stroke-width="1"/>
<circle cx="477" cy="254.4" r="2.1" fill="#263B73" fill-opacity="0.58"/>
<circle cx="615" cy="307.2" r="2.1" fill="#18A999" fill-opacity="0.58"/>
<line x1="477" y1="122.4" x2="615" y2="333.6" stroke="#A4A9B5" stroke-opacity="0.38" stroke-width="1"/>
<circle cx="477" cy="122.4" r="2.1" fill="#263B73" fill-opacity="0.58"/>
<circle cx="615" cy="333.6" r="2.1" fill="#18A999" fill-opacity="0.58"/>
<line x1="477" y1="201.6" x2="615" y2="228.0" stroke="#A4A9B5" stroke-opacity="0.38" stroke-width="1"/>
<circle cx="477" cy="201.6" r="2.1" fill="#263B73" fill-opacity="0.58"/>
<circle cx="615" cy="228.0" r="2.1" fill="#18A999" fill-opacity="0.58"/>
<line x1="477" y1="148.8" x2="615" y2="307.2" stroke="#A4A9B5" stroke-opacity="0.38" stroke-width="1"/>
<circle cx="477" cy="148.8" r="2.1" fill="#263B73" fill-opacity="0.58"/>
<circle cx="615" cy="307.2" r="2.1" fill="#18A999" fill-opacity="0.58"/>
<line x1="477" y1="307.2" x2="615" y2="307.2" stroke="#A4A9B5" stroke-opacity="0.38" stroke-width="1"/>
<circle cx="477" cy="307.2" r="2.1" fill="#263B73" fill-opacity="0.58"/>
<circle cx="615" cy="307.2" r="2.1" fill="#18A999" fill-opacity="0.58"/>
<line x1="477" y1="175.2" x2="615" y2="280.8" stroke="#A4A9B5" stroke-opacity="0.38" stroke-width="1"/>
<circle cx="477" cy="175.2" r="2.1" fill="#263B73" fill-opacity="0.58"/>
<circle cx="615" cy="280.8" r="2.1" fill="#18A999" fill-opacity="0.58"/>
<line x1="477" y1="175.2" x2="615" y2="333.6" stroke="#A4A9B5" stroke-opacity="0.38" stroke-width="1"/>
<circle cx="477" cy="175.2" r="2.1" fill="#263B73" fill-opacity="0.58"/>
<circle cx="615" cy="333.6" r="2.1" fill="#18A999" fill-opacity="0.58"/>
<line x1="477" y1="280.8" x2="615" y2="254.4" stroke="#A4A9B5" stroke-opacity="0.38" stroke-width="1"/>
<circle cx="477" cy="280.8" r="2.1" fill="#263B73" fill-opacity="0.58"/>
<circle cx="615" cy="254.4" r="2.1" fill="#18A999" fill-opacity="0.58"/>
<line x1="477" y1="307.2" x2="615" y2="201.6" stroke="#A4A9B5" stroke-opacity="0.38" stroke-width="1"/>
<circle cx="477" cy="307.2" r="2.1" fill="#263B73" fill-opacity="0.58"/>
<circle cx="615" cy="201.6" r="2.1" fill="#18A999" fill-opacity="0.58"/>
<line x1="477" y1="148.8" x2="615" y2="175.2" stroke="#A4A9B5" stroke-opacity="0.38" stroke-width="1"/>
<circle cx="477" cy="148.8" r="2.1" fill="#263B73" fill-opacity="0.58"/>
<circle cx="615" cy="175.2" r="2.1" fill="#18A999" fill-opacity="0.58"/>
<line x1="477" y1="148.8" x2="615" y2="333.6" stroke="#A4A9B5" stroke-opacity="0.38" stroke-width="1"/>
<circle cx="477" cy="148.8" r="2.1" fill="#263B73" fill-opacity="0.58"/>
<circle cx="615" cy="333.6" r="2.1" fill="#18A999" fill-opacity="0.58"/>
<line x1="477" y1="122.4" x2="615" y2="175.2" stroke="#A4A9B5" stroke-opacity="0.38" stroke-width="1"/>
<circle cx="477" cy="122.4" r="2.1" fill="#263B73" fill-opacity="0.58"/>
<circle cx="615" cy="175.2" r="2.1" fill="#18A999" fill-opacity="0.58"/>
<line x1="477" y1="175.2" x2="615" y2="175.2" stroke="#A4A9B5" stroke-opacity="0.38" stroke-width="1"/>
<circle cx="477" cy="175.2" r="2.1" fill="#263B73" fill-opacity="0.58"/>
<circle cx="615" cy="175.2" r="2.1" fill="#18A999" fill-opacity="0.58"/>
<line x1="477" y1="280.8" x2="615" y2="201.6" stroke="#A4A9B5" stroke-opacity="0.38" stroke-width="1"/>
<circle cx="477" cy="280.8" r="2.1" fill="#263B73" fill-opacity="0.58"/>
<circle cx="615" cy="201.6" r="2.1" fill="#18A999" fill-opacity="0.58"/>
<line x1="477" y1="280.8" x2="615" y2="280.8" stroke="#A4A9B5" stroke-opacity="0.38" stroke-width="1"/>
<circle cx="477" cy="280.8" r="2.1" fill="#263B73" fill-opacity="0.58"/>
<circle cx="615" cy="280.8" r="2.1" fill="#18A999" fill-opacity="0.58"/>
<line x1="477" y1="201.6" x2="615" y2="148.8" stroke="#A4A9B5" stroke-opacity="0.38" stroke-width="1"/>
<circle cx="477" cy="201.6" r="2.1" fill="#263B73" fill-opacity="0.58"/>
<circle cx="615" cy="148.8" r="2.1" fill="#18A999" fill-opacity="0.58"/>
<line x1="477" y1="228.0" x2="615" y2="228.0" stroke="#A4A9B5" stroke-opacity="0.38" stroke-width="1"/>
<circle cx="477" cy="228.0" r="2.1" fill="#263B73" fill-opacity="0.58"/>
<circle cx="615" cy="228.0" r="2.1" fill="#18A999" fill-opacity="0.58"/>
<line x1="477" y1="201.6" x2="615" y2="333.6" stroke="#A4A9B5" stroke-opacity="0.38" stroke-width="1"/>
<circle cx="477" cy="201.6" r="2.1" fill="#263B73" fill-opacity="0.58"/>
<circle cx="615" cy="333.6" r="2.1" fill="#18A999" fill-opacity="0.58"/>
<line x1="477" y1="201.6" x2="615" y2="148.8" stroke="#A4A9B5" stroke-opacity="0.38" stroke-width="1"/>
<circle cx="477" cy="201.6" r="2.1" fill="#263B73" fill-opacity="0.58"/>
<circle cx="615" cy="148.8" r="2.1" fill="#18A999" fill-opacity="0.58"/>
<line x1="477" y1="254.4" x2="615" y2="360.0" stroke="#A4A9B5" stroke-opacity="0.38" stroke-width="1"/>
<circle cx="477" cy="254.4" r="2.1" fill="#263B73" fill-opacity="0.58"/>
<circle cx="615" cy="360.0" r="2.1" fill="#18A999" fill-opacity="0.58"/>
<line x1="477" y1="280.8" x2="615" y2="360.0" stroke="#A4A9B5" stroke-opacity="0.38" stroke-width="1"/>
<circle cx="477" cy="280.8" r="2.1" fill="#263B73" fill-opacity="0.58"/>
<circle cx="615" cy="360.0" r="2.1" fill="#18A999" fill-opacity="0.58"/>
<line x1="477" y1="232.1" x2="615" y2="269.7" stroke="#E07A5F" stroke-width="4"/>
<circle cx="477" cy="232.1" r="4.5" fill="#E07A5F"/>
<circle cx="615" cy="269.7" r="4.5" fill="#E07A5F"/>
<line x1="429" y1="275.0" x2="685" y2="275.0" stroke="#555555" stroke-width="1.2" stroke-dasharray="5 4"/>
<text x="477" y="382" text-anchor="middle" class="axis" fill="#263B73">Before</text>
<text x="615" y="382" text-anchor="middle" class="axis" fill="#18A999">After</text>
<text x="557" y="93" text-anchor="middle" class="small">Δ -1.42 (95% CI -2.33, -0.51)</text>
<text x="433" y="270.0" class="caption">independent base reference</text>
<text x="397" y="228.0" text-anchor="middle" class="caption" transform="rotate(-90 397 228.0)">Judge score (0–10)</text>
<text x="724" y="76" class="panel">C  Explicit CoT markers</text>
<line x1="766" y1="360.0" x2="1046" y2="360.0" stroke="#E8E9ED"/>
<text x="758" y="364.0" text-anchor="end" class="caption">0</text>
<line x1="766" y1="303.1" x2="1046" y2="303.1" stroke="#E8E9ED"/>
<text x="758" y="307.1" text-anchor="end" class="caption">10</text>
<line x1="766" y1="246.2" x2="1046" y2="246.2" stroke="#E8E9ED"/>
<text x="758" y="250.2" text-anchor="end" class="caption">20</text>
<line x1="766" y1="189.3" x2="1046" y2="189.3" stroke="#E8E9ED"/>
<text x="758" y="193.3" text-anchor="end" class="caption">30</text>
<line x1="766" y1="132.4" x2="1046" y2="132.4" stroke="#E8E9ED"/>
<text x="758" y="136.4" text-anchor="end" class="caption">40</text>
<rect x="782" y="183.6" width="28" height="176.4" fill="#263B73"/>
<text x="796.0" y="178.6" text-anchor="middle" class="small">31</text>
<rect x="814" y="354.3" width="28" height="5.7" fill="#18A999"/>
<text x="828.0" y="349.3" text-anchor="middle" class="small">1</text>
<text x="812" y="382" text-anchor="middle" class="caption">Self-reference</text>
<rect x="876" y="143.8" width="28" height="216.2" fill="#263B73"/>
<text x="890.0" y="138.8" text-anchor="middle" class="small">38</text>
<rect x="908" y="354.3" width="28" height="5.7" fill="#18A999"/>
<text x="922.0" y="349.3" text-anchor="middle" class="small">1</text>
<text x="906" y="382" text-anchor="middle" class="caption">Concealment</text>
<rect x="970" y="257.6" width="28" height="102.4" fill="#263B73"/>
<text x="984.0" y="252.6" text-anchor="middle" class="small">18</text>
<rect x="1002" y="354.3" width="28" height="5.7" fill="#18A999"/>
<text x="1016.0" y="349.3" text-anchor="middle" class="small">1</text>
<text x="1000" y="382" text-anchor="middle" class="caption">Named quirk</text>
<rect x="934" y="86" width="10" height="10" fill="#263B73"/>
<text x="949" y="95" class="caption">Before</text>
<rect x="994" y="86" width="10" height="10" fill="#18A999"/>
<text x="1009" y="95" class="caption">After</text>
<text x="735" y="232.0" text-anchor="middle" class="caption" transform="rotate(-90 735 232.0)">Scenarios (of 45)</text>
</svg>
